<svg xmlns="http://www.w3.org/2000/svg" viewBox="0 0 65.334 52.384">
    <g fill="#333333"  transform="matrix(1, 0, 0, 1, 2.912504, 1.072739)">
        <g  transform="matrix(1, 0, 0, 1, -0.245504, 0.1355)">
            <g>
                <rect fill="#333333" fill-opacity="0" stroke-width="2" x="0" y="0" width="60" height="49.96752111127767" ></rect>
                <svg filter="url(#colors8648383763)" x="0" y="0" width="60" height="49.96752111127767" filtersec="colorsf6332490967"  style="overflow: visible;">
                    <svg xmlns="http://www.w3.org/2000/svg" version="1.1" x="0px" y="0px" viewBox="4.2848358154296875 13.331262588500977 81.61516571044922 67.96873474121094">
                        <path d="M85.9,56H40.6v20.1c0,2.9,2.3,5.2,5.2,5.2h34.9c2.9,0,5.2-2.3,5.2-5.2V56"></path>
                        <path d="M81.9,43.5H65.5c-1.5,0-3-0.5-4.1-1.5l-2.2-1.9c-0.7-0.6-1.7-1-2.6-1H43.8  c-1.7,0-3.2,1.4-3.2,3.2v9.5h44.7v-4.9C85.3,45,83.8,43.5,81.9,43.5"></path>
                        <g>
                            <path d="M37,51.8v-9.5c0-4.1,2.7-7.3,6.8-7.3h12.8c2,0,3.9,0.6,5.3,1.9l2.2,1.7C64.5,39,65,39,65.5,39h11.1   c-0.1,0-0.2-0.4-0.3-0.6c-1.5-2.6-3.9-4.7-6.7-5.8l-0.4-1.7c-0.8-3.2-2.9-5.7-5.9-7.1c-3-1.4-6.3-1.3-9.2,0.1l-0.5,0.3L51,20.9   c-5.1-6.4-13.1-9-20.9-6.8c-7.9,2.2-13.4,8.5-14.5,16.6l-0.4,3l-2.7,1.5C6,38.7,3,45.8,4.8,52.9c1.8,7,7.6,12.1,14.8,12.1H37v-9   V51.8z"></path>
                        </g>
                    </svg>
                </svg>
                <defs>
                    <filter id="colors8648383763">
                        <feColorMatrix type="matrix" values="0 0 0 0 0.0859375  0 0 0 0 0.515625  0 0 0 0 0.671875  0 0 0 1 0" ></feColorMatrix>
                    </filter>
                    <filter id="colorsf6332490967">
                        <feColorMatrix type="matrix" values="0 0 0 0 0.99609375  0 0 0 0 0.99609375  0 0 0 0 0.99609375  0 0 0 1 0" ></feColorMatrix>
                    </filter>
                    <filter id="colorsb7430251544">
                        <feColorMatrix type="matrix" values="0 0 0 0 0  0 0 0 0 0  0 0 0 0 0  0 0 0 1 0" ></feColorMatrix>
                    </filter>
                </defs>
            </g>
        </g>
    </g>
</svg>