<svg xmlns="http://www.w3.org/2000/svg" viewBox="0 0 200.255 52.113">
    <g fill="#333333" transform="matrix(1, 0, 0, 1, 2.912504, 1.072739)">
        <g transform="translate(0,0)">
            <g>
                <rect fill="#333333" fill-opacity="0" stroke-width="2" x="0" y="0" width="60"
                      height="49.96752111127767"></rect>
                <svg filter="url(#colors8648383763)" x="0" y="0" width="60" height="49.96752111127767"
                     style="overflow: visible;">
                    <svg xmlns="http://www.w3.org/2000/svg" version="1.1" x="0px" y="0px"
                         viewBox="4.2848358154296875 13.331262588500977 81.61516571044922 67.96873474121094">
                        <path d="M85.9,56H40.6v20.1c0,2.9,2.3,5.2,5.2,5.2h34.9c2.9,0,5.2-2.3,5.2-5.2V56"></path>
                        <path d="M81.9,43.5H65.5c-1.5,0-3-0.5-4.1-1.5l-2.2-1.9c-0.7-0.6-1.7-1-2.6-1H43.8  c-1.7,0-3.2,1.4-3.2,3.2v9.5h44.7v-4.9C85.3,45,83.8,43.5,81.9,43.5"></path>
                        <g>
                            <path d="M37,51.8v-9.5c0-4.1,2.7-7.3,6.8-7.3h12.8c2,0,3.9,0.6,5.3,1.9l2.2,1.7C64.5,39,65,39,65.5,39h11.1   c-0.1,0-0.2-0.4-0.3-0.6c-1.5-2.6-3.9-4.7-6.7-5.8l-0.4-1.7c-0.8-3.2-2.9-5.7-5.9-7.1c-3-1.4-6.3-1.3-9.2,0.1l-0.5,0.3L51,20.9   c-5.1-6.4-13.1-9-20.9-6.8c-7.9,2.2-13.4,8.5-14.5,16.6l-0.4,3l-2.7,1.5C6,38.7,3,45.8,4.8,52.9c1.8,7,7.6,12.1,14.8,12.1H37v-9   V51.8z"></path>
                        </g>
                    </svg>
                </svg>
                <defs>
                    <filter id="colors8648383763">
                        <feColorMatrix type="matrix"
                                       values="0 0 0 0 0.0859375  0 0 0 0 0.515625  0 0 0 0 0.671875  0 0 0 1 0"></feColorMatrix>
                    </filter>
                    <filter id="colorsf6332490967">
                        <feColorMatrix type="matrix"
                                       values="0 0 0 0 0.99609375  0 0 0 0 0.99609375  0 0 0 0 0.99609375  0 0 0 1 0"></feColorMatrix>
                    </filter>
                    <filter id="colorsb7430251544">
                        <feColorMatrix type="matrix"
                                       values="0 0 0 0 0  0 0 0 0 0  0 0 0 0 0  0 0 0 1 0"></feColorMatrix>
                    </filter>
                </defs>
            </g>
        </g>
        <g transform="translate(67,7.260290145874023)">
            <g fill-rule="">
                <g transform="scale(1)">
                    <g>
                        <path d="M15.19-6.05L15.19-6.05Q15.19-4.2 14.24-2.76 13.3-1.32 11.53-0.52 9.76 0.27 7.37 0.27L7.37 0.27Q5.38 0.27 4.03-0.01 2.69-0.29 1.23-0.98L1.23-0.98 1.23-5.78Q2.77-4.99 4.43-4.55 6.09-4.1 7.48-4.1L7.48-4.1Q8.68-4.1 9.24-4.52 9.8-4.93 9.8-5.59L9.8-5.59Q9.8-6 9.58-6.3 9.35-6.61 8.85-6.92 8.36-7.24 6.2-8.21L6.2-8.21Q4.25-9.09 3.28-9.92 2.3-10.75 1.83-11.83 1.36-12.91 1.36-14.38L1.36-14.38Q1.36-17.13 3.37-18.67 5.37-20.21 8.87-20.21L8.87-20.21Q11.97-20.21 15.19-18.78L15.19-18.78 13.54-14.63Q10.74-15.91 8.71-15.91L8.71-15.91Q7.66-15.91 7.18-15.54 6.71-15.17 6.71-14.63L6.71-14.63Q6.71-14.04 7.31-13.58 7.92-13.11 10.61-11.89L10.61-11.89Q13.18-10.73 14.18-9.4 15.19-8.07 15.19-6.05ZM27.06-15.53L27.06 0 21.67 0 21.67-15.53 16.81-15.53 16.81-19.93 31.91-19.93 31.91-15.53 27.06-15.53ZM53.41-9.99L53.41-9.99Q53.41-4.96 50.94-2.34 48.47 0.27 43.72 0.27L43.72 0.27Q39.03 0.27 36.52-2.36 34.02-4.99 34.02-10.02L34.02-10.02Q34.02-14.99 36.51-17.62 39-20.24 43.74-20.24L43.74-20.24Q48.5-20.24 50.95-17.64 53.41-15.04 53.41-9.99ZM39.69-9.99L39.69-9.99Q39.69-4.21 43.72-4.21L43.72-4.21Q45.76-4.21 46.75-5.62 47.74-7.02 47.74-9.99L47.74-9.99Q47.74-12.98 46.73-14.4 45.73-15.83 43.74-15.83L43.74-15.83Q39.69-15.83 39.69-9.99ZM63.75-7.25L62.39-7.25 62.39 0 57.01 0 57.01-19.93 63.53-19.93Q71.66-19.93 71.66-14.04L71.66-14.04Q71.66-10.58 68.28-8.68L68.28-8.68 74.09 0 67.98 0 63.75-7.25ZM62.39-15.85L62.39-11.3 63.4-11.3Q66.22-11.3 66.22-13.79L66.22-13.79Q66.22-15.85 63.45-15.85L63.45-15.85 62.39-15.85ZM94.01 0L88.13 0 87.14-3.73 80.67-3.73 79.66 0 73.74 0 80.25-20.01 87.43-20.01 94.01 0ZM81.79-8.15L86.03-8.15 85.17-11.42Q84.87-12.51 84.44-14.24 84.01-15.98 83.87-16.73L83.87-16.73Q83.75-16.03 83.39-14.44 83.03-12.84 81.79-8.15L81.79-8.15ZM104.17-7.51L104.17-11.67 112.77-11.67 112.77-0.93Q109.27 0.27 105.07 0.27L105.07 0.27Q100.46 0.27 97.95-2.4 95.43-5.07 95.43-10.02L95.43-10.02Q95.43-14.84 98.18-17.53 100.94-20.21 105.9-20.21L105.9-20.21Q107.78-20.21 109.45-19.86 111.12-19.51 112.36-18.96L112.36-18.96 110.66-14.74Q108.5-15.8 105.93-15.8L105.93-15.8Q103.57-15.8 102.28-14.26 100.99-12.73 100.99-9.88L100.99-9.88Q100.99-7.09 102.16-5.62 103.32-4.16 105.52-4.16L105.52-4.16Q106.72-4.16 107.73-4.39L107.73-4.39 107.73-7.51 104.17-7.51ZM128.66-4.39L128.66 0 116.83 0 116.83-19.93 128.66-19.93 128.66-15.61 122.22-15.61 122.22-12.47 128.19-12.47 128.19-8.15 122.22-8.15 122.22-4.39 128.66-4.39Z"
                              transform="translate(-1.2300000190734863, 20.239999771118164)"></path>
                    </g>
                    <g fill="#1684ac" transform="translate(0,23.51000213623047)">
                        <g transform="scale(0.99144)">
                            <path d="M15.86-5.79L15.86-5.79Q15.86-4.23 15.3-3.09 14.73-1.96 13.75-1.22 12.76-0.48 11.42-0.13 10.08 0.23 8.52 0.23L8.52 0.23Q6.96 0.23 5.61-0.13 4.26-0.48 3.27-1.22 2.27-1.96 1.7-3.09 1.14-4.23 1.14-5.79L1.14-5.79Q1.14-6.83 1.4-7.67 1.66-8.52 2.13-9.19 2.61-9.86 3.28-10.35 3.95-10.84 4.77-11.17 5.59-11.49 6.54-11.65 7.48-11.81 8.52-11.81L8.52-11.81Q10.08-11.81 11.42-11.45 12.76-11.1 13.75-10.36 14.73-9.62 15.3-8.48 15.86-7.35 15.86-5.79ZM14.78-5.79L14.78-5.79Q14.78-7.02 14.37-7.97 13.97-8.91 13.19-9.56 12.4-10.2 11.24-10.54 10.07-10.87 8.52-10.87L8.52-10.87Q6.98-10.87 5.8-10.53 4.62-10.19 3.83-9.55 3.04-8.9 2.63-7.95 2.23-7 2.23-5.79L2.23-5.79Q2.23-4.56 2.63-3.61 3.04-2.67 3.83-2.02 4.62-1.38 5.8-1.04 6.98-0.71 8.52-0.71L8.52-0.71Q10.07-0.71 11.24-1.04 12.4-1.38 13.19-2.02 13.97-2.67 14.37-3.61 14.78-4.56 14.78-5.79ZM24.72-4.96L20.01-4.96 20.01 0 18.95 0 18.95-11.59 24.72-11.59Q26.05-11.59 26.99-11.39 27.94-11.18 28.54-10.76 29.15-10.35 29.42-9.72 29.7-9.1 29.7-8.26L29.7-8.26Q29.7-6.96 29.02-6.18 28.34-5.4 26.82-5.11L26.82-5.11 30.77 0 29.45 0 25.71-5Q25.48-4.98 25.23-4.97 24.99-4.96 24.72-4.96L24.72-4.96ZM28.61-8.26L28.61-8.26Q28.61-9 28.35-9.46 28.09-9.92 27.5-10.18 26.91-10.43 25.95-10.52 24.99-10.61 23.6-10.61L23.6-10.61 20.01-10.61 20.01-5.95 23.57-5.95Q24.96-5.95 25.92-6.03 26.88-6.11 27.48-6.36 28.08-6.61 28.35-7.06 28.61-7.51 28.61-8.26ZM45.07-0.92L45.07-0.92Q44.46-0.67 43.87-0.46 43.27-0.24 42.63-0.09 41.99 0.06 41.28 0.14 40.57 0.23 39.74 0.23L39.74 0.23Q38.71 0.23 37.76 0.06 36.81-0.11 35.99-0.45 35.17-0.78 34.5-1.29 33.84-1.79 33.36-2.46 32.88-3.12 32.63-3.96 32.37-4.79 32.37-5.79L32.37-5.79Q32.37-6.78 32.63-7.62 32.88-8.46 33.36-9.12 33.84-9.79 34.5-10.29 35.17-10.79 35.99-11.13 36.81-11.47 37.75-11.64 38.7-11.81 39.74-11.81L39.74-11.81Q40.57-11.81 41.28-11.72 41.99-11.64 42.63-11.48 43.27-11.33 43.87-11.13 44.46-10.92 45.07-10.67L45.07-10.67 45.07-9.4Q44.59-9.7 44.04-9.97 43.49-10.24 42.85-10.45 42.22-10.65 41.49-10.77 40.77-10.89 39.94-10.89L39.94-10.89Q38.27-10.89 37.04-10.52 35.82-10.16 35.02-9.5 34.23-8.83 33.84-7.89 33.46-6.95 33.46-5.79L33.46-5.79Q33.46-4.62 33.84-3.69 34.23-2.75 35.02-2.09 35.82-1.43 37.04-1.07 38.27-0.71 39.94-0.71L39.94-0.71Q40.77-0.71 41.5-0.83 42.24-0.95 42.89-1.15 43.53-1.35 44.08-1.62 44.62-1.88 45.07-2.18L45.07-2.18 45.07-0.92ZM60.7 0L59.64 0 59.64-5.62 49.25-5.62 49.25 0 48.2 0 48.2-11.59 49.25-11.59 49.25-6.6 59.64-6.6 59.64-11.59 60.7-11.59 60.7 0ZM74.39 0L64.6 0 64.6-11.59 74.27-11.59 74.27-10.61 65.75-10.61 65.75-6.62 73.83-6.62 73.83-5.64 65.75-5.64 65.75-0.99 74.39-0.99 74.39 0ZM87.02-11.1L87.02-9.88Q86.69-10.04 86.26-10.22 85.83-10.4 85.27-10.55 84.72-10.69 84.03-10.79 83.34-10.89 82.49-10.89L82.49-10.89Q81.47-10.89 80.67-10.77 79.88-10.65 79.32-10.4 78.77-10.15 78.48-9.77 78.19-9.39 78.19-8.87L78.19-8.87Q78.19-8.43 78.46-8.1 78.74-7.77 79.21-7.52 79.67-7.27 80.3-7.06 80.93-6.85 81.64-6.67 82.34-6.49 83.09-6.3 83.83-6.12 84.54-5.9 85.24-5.69 85.87-5.42 86.5-5.16 86.97-4.8 87.44-4.45 87.71-3.99 87.99-3.54 87.99-2.94L87.99-2.94Q87.99-2.29 87.74-1.8 87.5-1.32 87.08-0.97 86.66-0.62 86.1-0.38 85.54-0.15 84.9-0.02 84.26 0.12 83.59 0.17 82.91 0.23 82.25 0.23L82.25 0.23Q80.74 0.23 79.51 0.01 78.28-0.21 77.17-0.59L77.17-0.59 77.17-1.88Q78.32-1.2 79.59-0.95 80.87-0.69 82.28-0.69L82.28-0.69Q83.28-0.69 84.12-0.81 84.96-0.93 85.58-1.19 86.2-1.44 86.54-1.86 86.88-2.27 86.88-2.87L86.88-2.87Q86.88-3.35 86.61-3.71 86.33-4.08 85.86-4.35 85.4-4.62 84.77-4.84 84.14-5.05 83.44-5.23 82.74-5.41 81.99-5.58 81.24-5.75 80.54-5.96 79.84-6.16 79.21-6.41 78.59-6.67 78.12-7.01 77.65-7.35 77.37-7.8 77.1-8.24 77.1-8.83L77.1-8.83Q77.1-9.42 77.32-9.87 77.54-10.32 77.92-10.65 78.31-10.98 78.82-11.2 79.34-11.43 79.92-11.56 80.51-11.69 81.14-11.75 81.78-11.81 82.39-11.81L82.39-11.81Q83.07-11.81 83.67-11.75 84.27-11.69 84.83-11.59 85.4-11.49 85.93-11.37 86.47-11.24 87.02-11.1L87.02-11.1ZM101.23-10.63L95.95-10.63 95.95 0 94.91 0 94.91-10.63 89.63-10.63 89.63-11.59 101.23-11.59 101.23-10.63ZM109.28-4.96L104.56-4.96 104.56 0 103.5 0 103.5-11.59 109.28-11.59Q110.6-11.59 111.55-11.39 112.49-11.18 113.09-10.76 113.7-10.35 113.98-9.72 114.25-9.1 114.25-8.26L114.25-8.26Q114.25-6.96 113.57-6.18 112.89-5.4 111.37-5.11L111.37-5.11 115.33 0 114 0 110.26-5Q110.03-4.98 109.78-4.97 109.54-4.96 109.28-4.96L109.28-4.96ZM113.17-8.26L113.17-8.26Q113.17-9 112.9-9.46 112.64-9.92 112.05-10.18 111.46-10.43 110.5-10.52 109.55-10.61 108.15-10.61L108.15-10.61 104.56-10.61 104.56-5.95 108.12-5.95Q109.51-5.95 110.47-6.03 111.44-6.11 112.03-6.36 112.63-6.61 112.9-7.06 113.17-7.51 113.17-8.26ZM129.67 0L128.51 0 126.92-3.05 119.05-3.05 117.45 0 116.3 0 122.36-11.59 123.6-11.59 129.67 0ZM126.41-4.03L122.99-10.57 119.56-4.03 126.41-4.03Z"
                                  transform="translate(-1.1399999856948853, 11.8100004196167)"></path>
                        </g>
                    </g>
                </g>
            </g>
        </g>
    </g>
</svg>